<?xml version="1.0" encoding="UTF-8" standalone="no"?>
<svg
  fill="hsl(12, 70%, 56%)"
   xmlns:dc="http://purl.org/dc/elements/1.1/"
   xmlns:cc="http://creativecommons.org/ns#"
   xmlns:rdf="http://www.w3.org/1999/02/22-rdf-syntax-ns#"
   xmlns:svg="http://www.w3.org/2000/svg"
   xmlns="http://www.w3.org/2000/svg"
   xmlns:sodipodi="http://sodipodi.sourceforge.net/DTD/sodipodi-0.dtd"
   xmlns:inkscape="http://www.inkscape.org/namespaces/inkscape"
   version="1.1"
   x="0px"
   y="0px"
   viewBox="0 0 64 80"
   enable-background="new 0 0 64 64"
   xml:space="preserve"
   id="svg12"
   sodipodi:docname="quote.svg"
   inkscape:version="0.92.3 (2405546, 2018-03-11)"><metadata
     id="metadata18"><rdf:RDF><cc:Work
         rdf:about=""><dc:format>image/svg+xml</dc:format><dc:type
           rdf:resource="http://purl.org/dc/dcmitype/StillImage" /></cc:Work></rdf:RDF></metadata><defs
     id="defs16" /><sodipodi:namedview
     pagecolor="#ffffff"
     bordercolor="#666666"
     borderopacity="1"
     objecttolerance="10"
     gridtolerance="10"
     guidetolerance="10"
     inkscape:pageopacity="0"
     inkscape:pageshadow="2"
     inkscape:window-width="1920"
     inkscape:window-height="1043"
     id="namedview14"
     showgrid="false"
     inkscape:zoom="8.34386"
     inkscape:cx="39.361957"
     inkscape:cy="28.50255"
     inkscape:window-x="0"
     inkscape:window-y="0"
     inkscape:window-maximized="1"
     inkscape:current-layer="svg12" /><g
     id="g6"><path
       d="M49.861,30.774c-1.584-0.158-5.069-0.158-5.069-2.376c0-3.009,4.435-6.969,11.563-11.246   c2.217-1.426,6.812-3.643,6.812-6.653c0-2.376-1.743-4.118-5.386-3.643c-3.485,0.475-8.871,2.851-15.998,8.87   C34.338,21.904,27.369,32.2,27.369,42.337c0,10.296,6.969,20.592,18.216,20.592c9.028,0,16.79-6.811,16.79-16.157   C62.374,39.644,57.464,31.408,49.861,30.774z"
       id="path2" /><path
       d="M27.594,26.32c-1.301-0.68-2.728-1.125-4.268-1.253c-1.584-0.158-5.069-0.158-5.069-2.376   c0-3.009,4.435-6.969,11.563-11.246c2.218-1.426,6.811-3.643,6.811-6.653c0-2.376-1.743-4.118-5.386-3.643   c-3.485,0.475-8.871,2.851-15.998,8.87C7.803,16.197,0.833,26.493,0.833,36.631c0,10.296,6.969,20.592,18.216,20.592   c2.644,0,5.178-0.588,7.441-1.649c-2.219-4.012-3.402-8.654-3.402-13.236C23.089,36.68,24.911,31.193,27.594,26.32z"
       id="path4" /></g></svg>